<?xml version="1.0" standalone="no"?>
<!DOCTYPE svg PUBLIC "-//W3C//DTD SVG 20010904//EN"
 "http://www.w3.org/TR/2001/REC-SVG-20010904/DTD/svg10.dtd">
<svg version="1.0" xmlns="http://www.w3.org/2000/svg"
 width="100.000000pt" height="100.000000pt" viewBox="0 0 100.000000 100.000000"
 preserveAspectRatio="xMidYMid meet">

<g transform="translate(0.000000,100.000000) scale(0.100000,-0.100000)"
fill="#000000" stroke="none">
<path d="M516 983 c-18 -19 -4 -41 32 -48 57 -10 135 -49 180 -90 48 -43 98
-137 108 -201 5 -38 10 -44 30 -44 29 0 30 12 7 94 -26 97 -78 170 -159 226
-52 36 -183 78 -198 63z"/>
<path d="M514 875 c-8 -21 2 -32 38 -39 44 -9 119 -61 147 -102 13 -18 30 -56
38 -84 11 -38 19 -50 34 -50 47 0 0 140 -71 209 -38 37 -128 81 -166 81 -8 0
-17 -7 -20 -15z"/>
<path d="M513 770 c-1 -15 9 -25 38 -36 46 -19 88 -65 96 -105 4 -23 11 -29
30 -29 22 0 24 3 18 33 -13 60 -61 121 -114 143 -47 19 -66 18 -68 -6z"/>
<path d="M445 625 c-14 -13 -25 -33 -25 -43 0 -30 31 -61 67 -68 26 -5 37 -1
57 19 34 34 33 70 0 96 -35 28 -69 26 -99 -4z"/>
</g>
</svg>
